<?xml version="1.0" encoding="UTF-8"?>
<svg id="Lemesh_Timber_Windows_OFFICIAL" data-name="Lemesh Timber Windows OFFICIAL" xmlns="http://www.w3.org/2000/svg" viewBox="0 0 800 800">
  <defs>
    <style>
      .cls-1 {
        fill: #151528;
      }

      .cls-2 {
        fill: #b78f68;
      }
    </style>
  </defs>
  <g id="Logo">
    <path class="cls-2" d="M465.53,216.57c-4.72,.4-14.8,.75-19.48,.87-30.29,1.03-61.06,4.54-89.82,15.1-48.56,17.53-84.28,50.74-108.21,96.19-2.29,4.88-6.64,13.35-8.53,18.36-1.11,2.66-3.25,8.04-4.37,10.69-3,8.44-6.52,18.76-8.71,27.42-14.01,51.02-20.37,113.22,16.19,156.55,12.4,14.47,28.11,24.83,45.55,31.93h-37.24c-4.56-4.14-8.83-8.71-12.74-13.44-4.6-5.69-8.8-11.76-11.65-18.35-1.48-3.34-2.75-7.05-3.97-10.55-3.7-10.86-6.77-21.92-9.33-33.14,1.04,15.45,2.69,30.94,6.19,46.08,2.86,10.63,7.8,20.36,13.84,29.41h-24.22c-.26-17.88-1.07-68.33-1.2-79.13-.12-4.5,.38-11.95,.47-16.37,.08-4.49,.55-11.92,.93-16.36,3.78-54.14,16.15-109.36,46.63-154.98,9.03-13.5,19.98-26.14,31.92-37.13,16.24-15.04,33.39-29.6,47.36-46.99,21.51-25.79,33.91-59.06,33-92.72-.18-11.12-1.66-22.17-4.11-32.98,2.12,10.87,3.26,21.93,3.11,32.98-.11,33.16-13.16,65.44-35.07,90.16-14.37,16.81-31.64,30.56-48.31,45.11-14.74,12.8-28.16,27.89-38.82,44.27-31.19,47.21-44,103.9-49.03,159.55-.51,8.05-1.33,17.2-1.57,25.24-.12,10.6-.97,61.26-1.2,79.34h-55.46v-92.82h54.39c.09-1.32,.19-2.65,.28-3.96,.03-.35,.05-.69,.08-1.04h-54.75v-90.91h29.53c8.75-.66,22.27-.71,26.52,8.11,1.05,2.51,1.09,6.52,.98,10.47-.72,16.26-1.46,32.73-1.22,49.02,1.75-12.13,3.85-24.16,6.27-36.15,.8-4,1.65-7.97,2.41-12.09,.78-4.57,1.59-8.9,.57-13.82-3.87-15.28-21.95-19.63-35.53-20.53h0s-29.53-.01-29.53-.01v-42.67h45.7c.78-1.68,1.61-3.35,2.49-5h-48.19v-20.94c-1.35,1.21-3.02,2.22-5,3.02v17.92h-54.69v-41.5c-1.58,.81-3.4,1.25-5.45,1.25-2.24,0-4.77-.51-7.55-1.5v89.51h0v216.65l292.06-.07c19.75,.38,39.35-1.58,57.16-4.97-54.31,4.35-126.22-1.88-162.5-47.37-34.23-44.25-22.54-105.91-7.91-155.66,22.27-70.59,64.85-120.97,137.31-142.29,14.15-4.09,28.61-7.07,43.24-9.05,13.62-1.95,28.25-2.79,41.93-4.76,23.24-4.62,45.47-14.75,64.56-28.52-20.09,11.44-42.41,19.55-65.32,22.6ZM132.69,573.68h-54.69v-92.82h54.69v92.82Zm0-97.82h-54.69v-77.2c.02-.47,.04-.98,.04-1.54,0-8.45,5.53-11.25,9.04-12.17h45.61v90.91Zm0-105.91h-54.69v-42.67h54.69v42.67Z"/>
    <g id="Branches">
      <path class="cls-2" d="M254.21,363.8c11.04-26.81,26.61-54.27,49.06-73.15,12.47-10.53,28.05-17.98,44.57-18.39,11.71-.34,22.77,2.9,33.88,4.87,32.36,5.93,65.12,2.51,97.07-6.29-29.8,15.33-65.31,21.56-98.76,16.59-18.05-2.81-32.56-7.49-50.35-.47-32.21,12.34-56.57,49.15-75.48,76.85h0Z"/>
      <path class="cls-2" d="M205.39,385.02c4.57-24.55,22.25-90.9,5.01-109.68-4.53-5.08-12.41-5.13-19.09-4.2-8.13,1.09-16.13,3.01-24.39,4.37-33.34,6.4-69.94,.04-97.96-18.83,30.85,13.13,63.93,16.64,96.25,9.5,8.17-1.59,16.4-3.75,24.82-4.9,6.21-.84,12.77-1.08,18.95,1.39,36.25,15.47,7.49,95.61-3.6,122.35h0Z"/>
      <path class="cls-2" d="M227.12,331.97c8.1-31.29,25.19-60.26,48.78-82.41,9.68-9.05,20.69-17.02,27.63-28.17,0,0,1.77-2.69,1.77-2.69l1.6-2.8c.41-.68,1.19-2.12,1.53-2.84,10.83-20.85,12.6-44.78,12.17-68.05,1.98,7.77,3.33,15.75,3.84,23.77,2.17,30.59-7.58,59.36-31.7,79.13-28.18,22.87-49.16,51.68-65.62,84.05h0Z"/>
      <path class="cls-2" d="M230.15,309.23c2.89-17.68,3.28-38.32-9.5-52.3-6.01-6.63-14.23-10.19-22.72-13.09-9.02-3.05-18.43-5.66-27.39-9.34-18.51-7.36-34.9-20.37-46.44-36.52-11.64-16-19.25-34.27-23.8-52.96,2.73,5.38,5.34,10.72,8.23,15.97,10.7,19.39,23.92,37.82,41.85,51,15.18,11.53,32.81,16.46,50.79,22.96,6.96,2.65,14.23,6.12,20.02,11.18,18.36,15.93,17.57,42.28,8.96,63.1h0Z"/>
    </g>
    <g id="Leaves">
      <path class="cls-2" d="M361.17,305.52c-.47-.87-.66-1.56-2.36-7.39-1.16-3.98-2.1-7.19-2.68-9.19,1.86,.54,4.62,1.51,7.71,3.24,3.31,1.85,6.14,3.44,8.26,6.6,1.13,1.69,1.8,3.83,3.14,8.12,.77,2.48,1.31,4.55,1.64,5.95-11.09-1.23-14.47-5.07-15.71-7.34Z"/>
      <path class="cls-2" d="M422.62,305.84c-.51-.54-.78-1.01-3.11-4.94-1.6-2.68-2.89-4.84-3.69-6.19,1.46,.05,3.65,.23,6.23,.91,2.76,.72,5.12,1.35,7.26,3.25,1.14,1.02,2.03,2.45,3.82,5.33,1.03,1.66,1.81,3.07,2.32,4.02-8.31,1.19-11.5-.96-12.83-2.38Z"/>
      <path class="cls-2" d="M439.74,262.14c-.22,.71-.25,1.25-.6,5.81-.24,3.11-.44,5.62-.57,7.18,1.29-.69,3.17-1.82,5.18-3.57,2.15-1.87,4-3.47,5.08-6.13,.57-1.42,.74-3.1,1.06-6.47,.19-1.95,.26-3.55,.3-4.63-7.98,2.61-9.88,5.95-10.45,7.81Z"/>
      <path class="cls-2" d="M472.06,289.56c-.51-.35-.81-.69-3.41-3.5-1.78-1.92-3.21-3.46-4.11-4.42,1.2-.22,3.03-.45,5.26-.35,2.39,.11,4.43,.2,6.52,1.39,1.11,.63,2.1,1.65,4.06,3.69,1.14,1.18,2.02,2.19,2.6,2.89-6.59,2.44-9.58,1.23-10.92,.3Z"/>
      <path class="cls-2" d="M398.05,257.63c-.73-.88-1.09-1.63-4.31-7.9-2.19-4.28-3.97-7.73-5.07-9.87,2.24,.21,5.59,.71,9.49,2,4.17,1.38,7.75,2.57,10.86,5.7,1.66,1.67,2.89,3.97,5.36,8.56,1.43,2.66,2.49,4.9,3.18,6.41-12.9,1.03-17.59-2.6-19.5-4.91Z"/>
      <path class="cls-2" d="M470.01,243.58c-.56-.81-.82-1.48-3.1-7.11-1.56-3.85-2.82-6.94-3.6-8.87,1.91,.35,4.74,1.03,8,2.44,3.48,1.51,6.46,2.8,8.89,5.73,1.3,1.56,2.18,3.63,3.94,7.76,1.02,2.39,1.76,4.39,2.24,5.75-11.15-.1-14.91-3.58-16.37-5.71Z"/>
      <path class="cls-2" d="M510.51,223.49c-.51-.35-.81-.69-3.41-3.5-1.78-1.92-3.21-3.46-4.11-4.42,1.2-.22,3.03-.45,5.26-.35,2.39,.11,4.43,.2,6.52,1.39,1.11,.63,2.1,1.65,4.06,3.69,1.14,1.18,2.02,2.19,2.6,2.89-6.59,2.44-9.58,1.23-10.92,.3Z"/>
      <path class="cls-2" d="M534.44,206.48c-.49-.17-.81-.38-3.54-2.06-1.86-1.15-3.36-2.07-4.3-2.65,.92-.44,2.34-1.04,4.16-1.46,1.95-.44,3.62-.83,5.57-.34,1.04,.26,2.06,.86,4.1,2.07,1.18,.7,2.12,1.32,2.75,1.75-4.78,3.44-7.46,3.13-8.74,2.68Z"/>
      <path class="cls-2" d="M484.15,197.16c-.22,.71-.25,1.25-.6,5.81-.24,3.11-.44,5.62-.57,7.18,1.29-.69,3.17-1.82,5.18-3.57,2.15-1.87,4-3.47,5.08-6.13,.57-1.42,.74-3.1,1.06-6.47,.19-1.95,.26-3.55,.3-4.63-7.98,2.61-9.88,5.95-10.45,7.81Z"/>
      <path class="cls-2" d="M429,197.62c-.28,.91-.32,1.6-.77,7.43-.31,3.99-.57,7.2-.73,9.19,1.65-.88,4.06-2.33,6.63-4.57,2.76-2.4,5.12-4.45,6.5-7.85,.74-1.81,.94-3.97,1.36-8.28,.24-2.49,.34-4.55,.38-5.93-10.21,3.34-12.65,7.62-13.37,10Z"/>
      <path class="cls-2" d="M368.57,198.61c-.39,1.27-.45,2.24-1.08,10.4-.44,5.58-.79,10.07-1.02,12.86,2.3-1.23,5.68-3.26,9.28-6.39,3.86-3.35,7.16-6.22,9.09-10.98,1.03-2.54,1.32-5.55,1.91-11.58,.34-3.49,.47-6.36,.53-8.3-14.29,4.67-17.7,10.66-18.71,14Z"/>
      <path class="cls-2" d="M383.03,169.4c-.82,.28-1.44,.34-6.72,.94-3.6,.41-6.51,.75-8.31,.96,.74-1.52,1.98-3.76,3.93-6.17,2.08-2.58,3.87-4.79,6.91-6.15,1.62-.73,3.57-.99,7.46-1.51,2.25-.3,4.11-.45,5.37-.54-2.7,9.37-6.5,11.72-8.64,12.46Z"/>
      <path class="cls-2" d="M383.98,131.74c-.56,.35-1.01,.51-4.81,1.91-2.6,.95-4.69,1.72-5.99,2.21,.28-1.26,.79-3.14,1.81-5.28,1.08-2.29,2.01-4.25,4.02-5.8,1.07-.83,2.47-1.37,5.27-2.46,1.62-.63,2.97-1.08,3.89-1.36-.32,7.44-2.72,9.86-4.17,10.79Z"/>
      <path class="cls-2" d="M378.51,103.71c-.42,.36-.77,.55-3.75,2.19-2.03,1.12-3.67,2.02-4.69,2.59,.07-1.08,.26-2.7,.83-4.6,.61-2.03,1.13-3.77,2.6-5.32,.78-.82,1.87-1.45,4.05-2.7,1.26-.72,2.33-1.27,3.05-1.62,.68,6.2-1,8.52-2.09,9.47Z"/>
      <path class="cls-2" d="M347.48,144.21c.63,.49,1.15,.73,5.56,2.86,3.01,1.45,5.44,2.63,6.95,3.36-.18-1.55-.58-3.87-1.55-6.56-1.03-2.88-1.91-5.35-4.15-7.46-1.19-1.13-2.81-1.94-6.04-3.58-1.87-.95-3.45-1.65-4.51-2.1-.5,8.98,2.1,12.19,3.73,13.47Z"/>
      <path class="cls-2" d="M340.9,185.09c-.67,.29-1.2,.39-5.63,1.27-3.03,.6-5.47,1.09-6.99,1.39,.52-1.34,1.42-3.32,2.9-5.51,1.59-2.33,2.95-4.33,5.43-5.7,1.33-.73,2.96-1.09,6.23-1.8,1.89-.41,3.46-.67,4.52-.83-1.63,8.14-4.7,10.4-6.46,11.17Z"/>
      <path class="cls-2" d="M336.79,159.63c-.47,.3-.86,.44-4.1,1.62-2.21,.81-4,1.47-5.1,1.88,.24-1.08,.68-2.67,1.54-4.49,.92-1.95,1.71-3.61,3.42-4.94,.91-.71,2.1-1.17,4.48-2.09,1.38-.53,2.53-.92,3.31-1.16-.27,6.33-2.31,8.4-3.55,9.19Z"/>
      <path class="cls-2" d="M260.28,233.28c1.23,.5,2.19,.65,10.26,2.02,5.51,.94,9.96,1.7,12.72,2.18-1.02-2.41-2.73-5.95-5.53-9.82-2.99-4.14-5.55-7.7-10.11-10.05-2.43-1.25-5.41-1.82-11.36-2.95-3.44-.65-6.3-1.05-8.22-1.28,3.36,14.66,9.02,18.6,12.24,19.9Z"/>
      <path class="cls-2" d="M290.03,204.42c.9,.31,1.59,.38,7.4,1.04,3.97,.46,7.17,.83,9.16,1.06-.82-1.68-2.18-4.14-4.33-6.8-2.29-2.84-4.26-5.28-7.61-6.78-1.79-.8-3.93-1.09-8.22-1.66-2.48-.33-4.53-.5-5.92-.59,2.97,10.33,7.16,12.92,9.51,13.73Z"/>
      <path class="cls-2" d="M305.73,171.9c.53,.32,.96,.46,4.59,1.68,2.48,.83,4.47,1.51,5.71,1.93-.29-1.18-.83-2.94-1.84-4.94-1.08-2.13-2.01-3.96-3.94-5.37-1.03-.76-2.37-1.23-5.03-2.18-1.54-.55-2.83-.94-3.7-1.19,.49,7.01,2.82,9.24,4.21,10.08Z"/>
      <path class="cls-2" d="M172.33,204.67c-.82,.54-1.5,.79-7.17,2.97-3.87,1.49-6.99,2.69-8.93,3.44,.39-1.9,1.12-4.73,2.58-7.95,1.57-3.45,2.91-6.41,5.89-8.79,1.59-1.27,3.67-2.11,7.83-3.8,2.41-.98,4.43-1.68,5.79-2.13-.3,11.15-3.84,14.84-6,16.26Z"/>
      <path class="cls-2" d="M141.54,182.83c-.39,.48-.75,.76-3.74,3.15-2.04,1.63-3.68,2.95-4.7,3.77-.13-1.21-.23-3.05,.03-5.27,.28-2.37,.52-4.4,1.86-6.4,.71-1.06,1.8-1.97,3.98-3.78,1.26-1.05,2.34-1.85,3.07-2.39,1.95,6.75,.53,9.64-.49,10.91Z"/>
      <path class="cls-2" d="M119.98,155.77c-.32,.41-.62,.64-3.1,2.67-1.69,1.39-3.06,2.51-3.9,3.2-.12-1.01-.22-2.55-.02-4.41,.21-1.99,.4-3.69,1.49-5.37,.58-.9,1.49-1.67,3.29-3.2,1.04-.89,1.94-1.58,2.55-2.03,1.7,5.63,.54,8.07-.31,9.14Z"/>
      <path class="cls-2" d="M212.83,222.97c-1.2,.53-2.13,.7-10.04,2.3-5.4,1.09-9.76,1.98-12.46,2.53,.93-2.4,2.51-5.94,5.15-9.84,2.82-4.17,5.24-7.75,9.66-10.2,2.36-1.31,5.27-1.95,11.1-3.24,3.37-.75,6.17-1.22,8.06-1.51-2.87,14.54-8.32,18.59-11.46,19.97Z"/>
      <path class="cls-2" d="M149.21,245.15c.77-.49,1.23-.97,5.21-4.96,2.72-2.73,4.91-4.92,6.27-6.28-1.76-.38-4.43-.83-7.71-.8-3.52,.03-6.53,.06-9.66,1.69-1.67,.87-3.17,2.32-6.17,5.21-1.73,1.67-3.09,3.12-3.98,4.11,9.57,3.93,14.03,2.32,16.04,1.02Z"/>
      <path class="cls-2" d="M120.96,221.71c.82-.26,1.35-.59,5.93-3.26,3.12-1.82,5.64-3.29,7.21-4.2-1.5-.77-3.82-1.82-6.82-2.58-3.2-.82-5.95-1.51-9.18-.79-1.73,.39-3.44,1.34-6.86,3.25-1.98,1.1-3.56,2.09-4.61,2.78,7.75,5.87,12.19,5.48,14.33,4.79Z"/>
      <path class="cls-2" d="M103.43,187.94c.56-.06,.94-.19,4.23-1.27,2.25-.74,4.06-1.33,5.18-1.7-.86-.7-2.2-1.68-4.01-2.58-1.94-.96-3.6-1.78-5.77-1.76-1.16,.01-2.38,.39-4.83,1.15-1.42,.44-2.56,.85-3.33,1.15,4.15,4.81,7.05,5.17,8.51,5.02Z"/>
      <path class="cls-2" d="M183.82,258.52c.79-.51,1.26-.99,5.32-5.07,2.78-2.78,5.02-5.02,6.41-6.41-1.79-.39-4.52-.85-7.88-.81-3.59,.03-6.67,.06-9.87,1.73-1.71,.89-3.24,2.37-6.3,5.32-1.77,1.71-3.16,3.19-4.07,4.2,9.77,4.02,14.33,2.37,16.39,1.05Z"/>
      <path class="cls-2" d="M123.16,254.26c.29,.66,.38,1.17,1.26,5.49,.6,2.95,1.08,5.33,1.39,6.81-1.31-.51-3.25-1.37-5.38-2.81-2.28-1.54-4.24-2.86-5.58-5.27-.72-1.29-1.07-2.88-1.78-6.07-.41-1.84-.67-3.37-.83-4.4,7.94,1.56,10.16,4.54,10.92,6.26Z"/>
      <path class="cls-2" d="M97.19,253.15c.16,.56,.18,.98,.4,4.53,.15,2.43,.28,4.39,.36,5.6-.99-.55-2.45-1.46-4-2.84-1.66-1.48-3.07-2.76-3.88-4.84-.43-1.11-.54-2.42-.75-5.05-.12-1.52-.16-2.77-.18-3.62,6.19,2.13,7.63,4.76,8.05,6.21Z"/>
      <path class="cls-2" d="M136.62,296.47c.48-.78,.69-1.41,2.54-6.73,1.26-3.63,2.29-6.56,2.93-8.38-1.75,.42-4.35,1.18-7.29,2.63-3.15,1.56-5.85,2.89-7.97,5.72-1.13,1.51-1.85,3.46-3.29,7.37-.83,2.26-1.43,4.15-1.81,5.43,10.33-.61,13.64-4,14.9-6.04Z"/>
      <path class="cls-2" d="M105.63,291.39c.55-.67,.82-1.22,3.23-5.94,1.64-3.22,2.97-5.82,3.8-7.43-1.68,.16-4.2,.54-7.13,1.51-3.13,1.04-5.82,1.94-8.15,4.3-1.24,1.26-2.17,2.99-4.01,6.44-1.07,2-1.86,3.68-2.38,4.83,9.69,.76,13.22-1.97,14.65-3.71Z"/>
      <path class="cls-2" d="M179.38,291.85c.26-.9,.3-1.57,.69-7.32,.27-3.92,.49-7.08,.63-9.05-1.61,.88-3.97,2.33-6.48,4.55-2.69,2.38-4.99,4.42-6.32,7.78-.71,1.79-.89,3.91-1.27,8.15-.22,2.45-.29,4.48-.32,5.84,10.01-3.38,12.37-7.61,13.06-9.96Z"/>
      <path class="cls-2" d="M76.68,276.95c.57-.36,.9-.71,3.83-3.65,2-2,3.61-3.62,4.61-4.62-1.29-.28-3.25-.61-5.67-.58-2.58,.03-4.8,.05-7.1,1.25-1.23,.64-2.33,1.7-4.53,3.83-1.27,1.23-2.27,2.29-2.93,3.02,7.03,2.89,10.31,1.7,11.79,.75Z"/>
      <path class="cls-2" d="M75.88,250.52c.11,.39,.13,.68,.28,3.18,.11,1.7,.2,3.08,.25,3.93-.7-.39-1.72-1.02-2.8-2-1.16-1.04-2.16-1.93-2.72-3.39-.3-.78-.38-1.7-.53-3.55-.09-1.07-.11-1.95-.12-2.54,4.34,1.49,5.35,3.34,5.65,4.36Z"/>
      <path class="cls-2" d="M316.45,328.12c-.84-1.01-1.25-1.86-4.93-9.05-2.51-4.91-4.55-8.86-5.81-11.31,2.56,.24,6.4,.81,10.87,2.29,4.78,1.58,8.88,2.94,12.44,6.53,1.9,1.92,3.31,4.55,6.13,9.81,1.63,3.04,2.85,5.61,3.64,7.35-14.77,1.18-20.15-2.97-22.33-5.62Z"/>
      <path class="cls-2" d="M205.74,324.95c.7-.85,1.06-1.57,4.16-7.63,2.12-4.14,3.83-7.47,4.9-9.54-2.16,.2-5.4,.68-9.17,1.93-4.03,1.33-7.49,2.48-10.49,5.51-1.6,1.62-2.79,3.84-5.17,8.27-1.38,2.57-2.4,4.73-3.07,6.2,12.46,1,16.99-2.51,18.83-4.74Z"/>
    </g>
  </g>
  <g id="Timber_Windows_LTD" data-name="Timber Windows LTD">
    <path class="cls-2" d="M310.25,500.83h-9.49v-2.16h21.33v2.16h-9.49v29.34h-2.34v-29.34Z"/>
    <path class="cls-2" d="M324.81,501.19c.99,0,1.8,.81,1.8,1.8s-.81,1.8-1.8,1.8-1.8-.81-1.8-1.8,.81-1.8,1.8-1.8Zm-1.17,8.46h2.34v20.52h-2.34v-20.52Z"/>
    <path class="cls-2" d="M348.42,530.17h-2.34v-12.78c0-4.18-1.89-5.99-4.99-5.99-3.87,0-5.62,3.96-5.62,3.96v14.8h-2.34v-20.52h2.12v3.46s1.8-4,6.39-4c2.52,0,5,1.12,6.21,4,.14-.27,2.02-4,6.57-4,3.15,0,6.79,1.8,6.79,7.56v13.5h-2.34v-12.78c0-4.18-1.89-5.99-4.99-5.99-3.87,0-5.45,3.96-5.45,3.96v14.8Z"/>
    <path class="cls-2" d="M368.45,530.17v-34.02h2.29v16.74c.54-.81,2.74-3.78,7.42-3.78,5.71,0,10.21,4.41,10.21,10.8s-4.5,10.8-10.21,10.8c-5.4,0-7.6-4-7.6-4v3.46h-2.12Zm2.34-6.12s2.07,4.37,7.38,4.37c4.59,0,7.78-3.74,7.78-8.5s-3.2-8.5-7.78-8.5c-5.31,0-7.38,4.37-7.38,4.37v8.28Z"/>
    <path class="cls-2" d="M412.68,519.91c0,.41,0,.45-.04,.95h-17.68c.18,3.1,2.74,7.56,8.19,7.56,3.15,0,5.62-1.75,7.02-3.51l1.57,1.62c-1.98,2.38-5.22,4.18-8.59,4.18-6.12,0-10.53-4.95-10.53-10.8s4-10.8,10.12-10.8c5.44,0,9.94,4.5,9.94,10.8Zm-2.43-1.21c-.09-2.34-2.12-7.29-7.51-7.29-5.71,0-7.6,5.04-7.69,7.29h15.21Z"/>
    <path class="cls-2" d="M429.43,509.65l-.99,2.25s-.86-.5-2.75-.5c-3.56,0-5.22,3.96-5.22,3.96v14.8h-2.34v-20.52h2.12v3.33s1.75-3.87,5.98-3.87c1.93,0,3.19,.54,3.19,.54Z"/>
    <path class="cls-2" d="M475.01,531.07l-9.31-28.53-9.36,28.53-11.61-32.4h2.52l9.18,25.74,8.05-25.74h2.38l8.19,25.74,9.09-25.74h2.47l-11.61,32.4Z"/>
    <path class="cls-2" d="M492.25,501.19c.99,0,1.8,.81,1.8,1.8s-.81,1.8-1.8,1.8-1.8-.81-1.8-1.8,.81-1.8,1.8-1.8Zm-1.17,8.46h2.34v20.52h-2.34v-20.52Z"/>
    <path class="cls-2" d="M517.4,517.07v13.09h-2.34v-12.73c0-4.23-2.48-6.03-5.81-6.03-4.54,0-6.34,4.59-6.34,4.59v14.17h-2.34v-20.52h2.12v3.74s1.98-4.28,7.02-4.28c3.82,0,7.7,2.39,7.7,7.96Z"/>
    <path class="cls-2" d="M540.67,530.17v-3.78s-2.38,4.32-7.61,4.32c-5.71,0-10.21-4.41-10.21-10.8s4.5-10.8,10.21-10.8c4.5,0,6.88,3.2,7.43,4v-16.96h2.29v34.02h-2.12Zm-.22-13.99s-2.21-4.77-7.38-4.77c-4.59,0-7.78,3.74-7.78,8.5s3.19,8.5,7.78,8.5c5.13,0,7.38-4.77,7.38-4.77v-7.47Z"/>
    <path class="cls-2" d="M569.54,519.91c0,5.94-4.32,10.8-10.44,10.8s-10.44-4.86-10.44-10.8,4.32-10.8,10.44-10.8,10.44,4.86,10.44,10.8Zm-2.43,0c0-4.63-2.88-8.5-8.01-8.5s-8.01,3.87-8.01,8.5,2.88,8.5,8.01,8.5,8.01-3.87,8.01-8.5Z"/>
    <path class="cls-2" d="M574.05,509.65l6.66,16.06,6.52-16.06h1.35l6.48,16.06,6.62-16.06h2.43l-9.18,21.42-7.11-17.14-7.16,17.14-9.13-21.42h2.52Z"/>
    <path class="cls-2" d="M608.24,524.77s2.07,3.64,6.93,3.64c2.25,0,5.36-.9,5.36-3.6,0-2.34-2.52-3.06-5.71-3.78-4.5-.99-7.29-2.7-7.29-6.12,0-2.93,2.75-5.81,7.25-5.81,4.81,0,7.33,2.88,7.33,2.88l-1.53,1.71s-2.12-2.29-5.8-2.29c-2.79,0-4.86,1.4-4.86,3.51,0,2.52,2.7,3.24,6.17,4,3.82,.86,6.88,2.21,6.88,5.9,0,3.91-3.92,5.89-7.79,5.89-6.07,0-8.77-4.37-8.77-4.37l1.84-1.57Z"/>
    <path class="cls-2" d="M643.65,498.67h2.34v29.34h15.03v2.16h-17.37v-31.5Z"/>
    <path class="cls-2" d="M669.01,500.83h-9.5v-2.16h21.33v2.16h-9.49v29.34h-2.34v-29.34Z"/>
    <path class="cls-2" d="M694.54,498.67c9.09,0,15.57,6.66,15.57,15.75s-6.48,15.75-15.57,15.75h-8.59v-31.5h8.59Zm-.45,29.34c8.28,0,13.59-5.44,13.59-13.59s-5.31-13.59-13.59-13.59h-5.8v27.18h5.8Z"/>
  </g>
  <g id="LEMESH">
    <path class="cls-1" d="M270.92,459.13h8.05c1.73,0,1.96-.23,1.96-1.96v-76.48c0-1.72-.23-1.96-1.96-1.96h-7.71c-.46,0-.69-.11-.69-1.04s.23-1.03,.69-1.03h36.46c.46,0,.69,.11,.69,1.03s-.23,1.04-.69,1.04h-10.7c-1.72,0-1.96,.23-1.96,1.96v76.48c0,1.73,.23,1.96,1.96,1.96h13.34c16.56,0,21.51-7.71,24.38-26.11,.12-.58,.46-.81,1.04-.81,.46,0,1.04,.23,1.04,.81v26.11c0,1.61-.34,2.07-1.96,2.07h-63.94c-.46,0-.69-.12-.69-1.04s.23-1.04,.69-1.04Z"/>
    <path class="cls-1" d="M344.78,459.13h8.05c1.73,0,1.96-.23,1.96-1.96v-76.48c0-1.72-.23-1.96-1.96-1.96h-7.71c-.46,0-.69-.11-.69-1.04s.23-1.03,.69-1.03h62.79c1.61,0,1.96,.46,1.96,2.07v20.24c0,.46-.23,.69-1.15,.69-.58,0-.8-.23-.92-.81-2.07-14.15-9.2-20.13-20.13-20.13h-16.79c-1.72,0-1.96,.23-1.96,1.96v34.16h4.95c11.85,0,15.07-3.22,16.56-13.57,.12-.57,.35-.8,.92-.8,.92,0,1.15,.23,1.15,.69v29.44c0,.46-.23,.69-1.15,.69-.58,0-.81-.34-.92-.92-1.5-10.35-4.71-13.46-16.56-13.46h-4.95v40.25c0,1.73,.23,1.96,1.96,1.96h15.41c14.49,0,20.82-7.71,23.46-25.42,.12-.58,.46-.8,1.04-.8,.92,0,1.04,.23,1.04,.69v25.53c0,1.61-.34,2.07-1.96,2.07h-65.09c-.46,0-.69-.12-.69-1.04s.23-1.04,.69-1.04Z"/>
    <path class="cls-1" d="M419.02,459.13c9.43-.46,10.93-3.91,10.93-19.9v-58.54c0-1.72-.23-1.96-1.96-1.96h-7.94c-.46,0-.69-.11-.69-1.04s.23-1.03,.69-1.03h23.23c1.03,0,1.96,.46,2.3,1.49l18.63,54.4c1.72,4.95,2.99,9.08,3.45,11.5h.46l22.54-65.9c.34-1.03,.92-1.49,2.42-1.49h22.43c.46,0,.69,.11,.69,1.03s-.23,1.04-.69,1.04h-7.47c-1.73,0-1.96,.23-1.96,1.96v76.48c0,1.73,.23,1.96,1.96,1.96h8.62c.46,0,.69,.12,.69,1.04s-.23,1.04-.69,1.04h-35.42c-.46,0-.69-.12-.69-1.04s.23-1.04,.69-1.04h8.74c1.73,0,1.96-.23,1.96-1.96v-74.06h-.57l-26.45,76.71c-.23,.92-.69,1.38-1.84,1.38h-1.84c-1.04,0-1.61-.34-1.96-1.38l-26.57-77.05h-.46v56.47c0,15.99,1.38,19.44,13,19.9,.46,0,.69,.35,.69,1.04,0,.92-.23,1.04-.69,1.04h-26.22c-.46,0-.69-.12-.69-1.04,0-.69,.23-1.04,.69-1.04Z"/>
    <path class="cls-1" d="M524.2,459.13h8.05c1.73,0,1.96-.23,1.96-1.96v-76.48c0-1.72-.23-1.96-1.96-1.96h-7.71c-.46,0-.69-.11-.69-1.04s.23-1.03,.69-1.03h62.79c1.61,0,1.96,.46,1.96,2.07v20.24c0,.46-.23,.69-1.15,.69-.58,0-.8-.23-.92-.81-2.07-14.15-9.2-20.13-20.13-20.13h-16.79c-1.72,0-1.96,.23-1.96,1.96v34.16h4.95c11.85,0,15.07-3.22,16.56-13.57,.12-.57,.35-.8,.92-.8,.92,0,1.15,.23,1.15,.69v29.44c0,.46-.23,.69-1.15,.69-.58,0-.81-.34-.92-.92-1.49-10.35-4.71-13.46-16.56-13.46h-4.95v40.25c0,1.73,.23,1.96,1.96,1.96h15.41c14.49,0,20.82-7.71,23.46-25.42,.12-.58,.46-.8,1.04-.8,.92,0,1.04,.23,1.04,.69v25.53c0,1.61-.34,2.07-1.96,2.07h-65.09c-.46,0-.69-.12-.69-1.04s.23-1.04,.69-1.04Z"/>
    <path class="cls-1" d="M628.14,375.64c8.28,0,11.27,3.33,17.48,3.33,2.07,0,2.88-.81,3.91-2.07,.34-.46,.8-.69,1.26-.69,.58,0,.81,.35,.81,1.27v24.38c0,.34-.46,.69-1.04,.69s-1.04-.23-1.04-.69c-1.73-14.72-8.62-24.15-21.51-24.15-8.63,0-14.15,5.52-14.15,12.42,0,8.05,3.33,12.77,19.32,20.47,16.45,7.94,23.35,14.95,23.35,27.03,0,13.92-10.58,24.96-26.8,24.96-10,0-13.8-4.14-19.32-4.14-2.65,0-4.49,.8-5.75,2.64-.34,.58-.8,.92-1.26,.92-.58,0-.8-.35-.8-1.27v-29.21c0-.35,.34-.69,1.03-.69,.81,0,1.04,.34,1.04,.69,2.53,18.4,10.7,28.98,24.84,28.98,11.5,0,18.63-6.44,18.63-15.3s-4.6-14.03-21.62-22.2c-15.76-7.59-20.82-15.07-20.82-26.11s9.2-21.28,22.43-21.28Z"/>
    <path class="cls-1" d="M661.05,459.13h8.05c1.73,0,1.96-.23,1.96-1.96v-76.48c0-1.72-.23-1.96-1.96-1.96h-7.71c-.46,0-.69-.11-.69-1.04s.23-1.03,.69-1.03h33.47c.46,0,.69,.11,.69,1.03s-.23,1.04-.69,1.04h-7.71c-1.72,0-1.96,.23-1.96,1.96v33.12h32.09v-33.12c0-1.72-.23-1.96-1.96-1.96h-7.71c-.46,0-.69-.11-.69-1.04s.23-1.03,.69-1.03h33.47c.46,0,.69,.11,.69,1.03s-.23,1.04-.69,1.04h-7.71c-1.72,0-1.96,.23-1.96,1.96v76.48c0,1.73,.23,1.96,1.96,1.96h8.05c.46,0,.69,.12,.69,1.04s-.23,1.04-.69,1.04h-34.16c-.46,0-.69-.12-.69-1.04s.23-1.04,.69-1.04h8.05c1.72,0,1.96-.23,1.96-1.96v-41.29h-32.09v41.29c0,1.73,.23,1.96,1.96,1.96h8.05c.46,0,.69,.12,.69,1.04s-.23,1.04-.69,1.04h-34.16c-.46,0-.69-.12-.69-1.04s.23-1.04,.69-1.04Z"/>
  </g>
</svg>